<?xml version="1.0" encoding="UTF-8"?>
<svg id="Layer_1" data-name="Layer 1" xmlns="http://www.w3.org/2000/svg" version="1.1" viewBox="0 0 757.6 168">
  <defs>
    <style>
      .cls-1 {
        fill: #010101;
      }

      .cls-1, .cls-2 {
        stroke-width: 0px;
      }

      .cls-2 {
        fill: #00aeef;
      }
    </style>
  </defs>
  <path class="cls-2" d="M131.8,36.4c-17.2-16-37.7-22.4-60.8-18.2C32.1,25.3,7.1,60.8,14,99.8c4.8,27.3,21.2,46,47.5,54.6,26.7,8.7,50.6,2.5,71.2-16.6,3.3-3,4.8-6.8,4.8-11.3,0-6.2-3.5-10.4-8.5-13.7,8.4-16.9,8.5-33.6,0-50.6.5-.4.8-.7,1.1-.9,9.5-6.9,10.3-17.1,1.7-25ZM30.3,62.1c16.9-35.6,64-44.6,92.9-17.8,1,.9,2.1,2.1,2.4,3.3.2,1-.4,2.9-1.1,3.2-1.2.5-3,.5-4.2,0-1.5-.8-2.7-2.3-4.1-3.4-27.5-22.3-68.5-11.6-81.4,21.4-2,5.2-2.1,5.2-8.3,2.9,1.2-3.2,2.2-6.4,3.7-9.5ZM52.5,101.5c.6,1,1.2,1.9,1.8,2.9,10.8,18.2,34.7,22.3,50.9,8.6.5-.4.9-.9,1.4-1.3,1.8-1.5,4-2,5.2,0,.7,1.2.2,3.9-.8,4.9-5.3,5.4-11.9,8.7-19.3,10.4-17.6,3.9-36.3-4.9-44.4-21-.4-.9-.7-1.8-1.2-3,2.2-.5,4.1-1,6.3-1.6ZM45.2,90.4c-1.7-.7-2.1-2.4-2.1-3.6,0-9.1,3-17.3,8.6-24.4,1-1.2,2-2.3,3-3.4,1.1-1.1,2.2-2.1,3.4-3,7.1-5.7,16-8.8,25.2-8.8,8.2.2,15.6,2.4,22.2,6.8,1.5,1,3,2.2,4.4,3.4,1.9,1.7,4.3,3.6,1.8,6.3-2.3,2.4-4.3.5-6.2-1.1-13.2-11.3-31.6-11.3-44.4,0-6.9,6.1-10.6,13.9-11.3,23.1-.1,1.5-.4,3.1-1.3,4.2-.6.7-2.6.9-3.4.6ZM97.9,103.8c-6.1,5.2-13,6.9-20.7,4.7-8.6-2.4-14.8-10-15.7-18.8-.9-8.7,3.7-17.2,11.4-21.4,7.8-4.2,17.6-3.4,24.4,2.5,4.5,3.9,9.2,6.7,15.2,5.2,2.7-.6,5.1-2.1,8.3-3.4,3.9,10,3.9,19.9,0,30.1-.2,0-.7-.1-1.1-.2,0,0,0,0,0,0,0,0-.2,0-.2-.1-8.2-5.3-13.9-4.9-21.5,1.5ZM123.5,130.5c-5.7,3.9-11.1,8.5-17.3,11.1-7.2,3-16.6,4.6-23,4.9-31.3,0-58-25.6-58.6-56.2,0-.4,0-.8,0-1.1,0-2.3.2-4.6,3.1-4.7,3.2-.1,3.5,2.3,3.7,4.7.4,3.7.6,7.4,1.5,11,9.4,38,55.6,52.3,85,26.4.4-.3.8-.7,1.1-1,1.8-1.8,3.9-3,5.9-.7,2.1,2.3.6,4.5-1.4,5.8Z"/>
  <g>
    <g>
      <path class="cls-1" d="M724,52.7h-3.6v-1.3h8.7v1.3h-3.6v10.5h-1.5v-10.5Z"/>
      <path class="cls-1" d="M740.4,58c0-1.6-.2-3.6-.2-5.1h0c-.4,1.4-.9,2.9-1.5,4.5l-2.1,5.7h-1.2l-1.9-5.6c-.6-1.7-1-3.2-1.4-4.6h0c0,1.5-.1,3.5-.2,5.2l-.3,5.1h-1.5l.8-11.8h1.9l2,5.7c.5,1.5.9,2.8,1.2,4h0c.3-1.2.7-2.5,1.2-4l2.1-5.7h1.9l.7,11.8h-1.5l-.3-5.2Z"/>
    </g>
    <g>
      <path class="cls-1" d="M219.9,61.5c0,1.8-.5,3.4-1.4,4.8s-2.1,2.5-3.3,3.3c-2.1-1.3-4.3-2.5-6.7-3.5-2.4-1-5.3-1.5-8.6-1.5-6.3,0-11.2,2-14.8,6-3.5,4-5.3,9.6-5.3,17s1.9,13.3,5.6,17.1c3.7,3.8,8.9,5.7,15.4,5.7s6.3-.5,8.7-1.4c2.4-.9,4.6-2,6.7-3.3,1.2.9,2.1,2.1,2.9,3.6.7,1.5,1.1,3.1,1.1,4.9s-.4,3.1-1.2,4.4-2.3,2.5-4.3,3.5c-1.6.8-3.7,1.5-6.4,2.2-2.7.7-6,1-9.9,1s-10.2-.8-14.8-2.2c-4.6-1.5-8.6-3.8-11.9-6.9-3.4-3.1-6.1-7-8-11.8-1.9-4.8-2.9-10.4-2.9-17s1-11.6,2.9-16.3c1.9-4.7,4.6-8.7,7.9-11.9s7.2-5.6,11.6-7.3c4.4-1.7,9.1-2.5,14.2-2.5,7.2,0,12.7,1.1,16.7,3.4,3.9,2.3,5.9,5.2,5.9,8.6Z"/>
      <path class="cls-1" d="M308.2,87.3c0,6.1-.9,11.6-2.8,16.3-1.9,4.7-4.4,8.7-7.7,11.9-3.3,3.2-7.2,5.6-11.7,7.3-4.5,1.7-9.4,2.5-14.7,2.5s-10.2-.8-14.7-2.5c-4.5-1.7-8.4-4.1-11.6-7.3-3.3-3.2-5.8-7.2-7.7-11.9-1.9-4.7-2.8-10.2-2.8-16.3s.9-11.6,2.8-16.3c1.9-4.7,4.5-8.6,7.8-11.8,3.3-3.2,7.2-5.6,11.6-7.3,4.5-1.7,9.3-2.5,14.5-2.5s10,.8,14.5,2.5c4.5,1.7,8.4,4.1,11.7,7.3,3.3,3.2,5.9,7.1,7.8,11.8,1.9,4.7,2.8,10.1,2.8,16.3ZM289,87.3c0-7.6-1.6-13.3-4.8-17.1s-7.5-5.7-12.9-5.7-9.7,1.9-12.9,5.7c-3.2,3.8-4.8,9.5-4.8,17.1s1.6,13.4,4.8,17.2,7.5,5.7,12.9,5.7,9.8-1.9,12.9-5.7,4.8-9.6,4.8-17.2Z"/>
      <path class="cls-1" d="M391.4,112.3c0,2.3-.4,4-1.3,5.1-.9,1.1-2.2,2.2-4.1,3.3-1.1.6-2.4,1.2-4,1.8-1.6.6-3.3,1-5.3,1.4-1.9.4-3.9.7-6,.9-2.1.2-4.2.4-6.2.4-5.7,0-10.9-.7-15.8-2.2-4.8-1.5-9.1-3.7-12.7-6.8-3.6-3.1-6.5-7-8.5-11.7-2.1-4.7-3.1-10.4-3.1-17s1-11.7,3.1-16.5c2.1-4.8,4.9-8.7,8.5-11.9,3.6-3.2,7.8-5.6,12.7-7.2,4.8-1.6,10.1-2.4,15.7-2.4s13.2,1.1,17.5,3.4c4.3,2.3,6.5,5.2,6.5,8.7s-.5,3.4-1.4,4.8c-.9,1.4-2.1,2.5-3.3,3.3-2-1.3-4.4-2.4-7.4-3.5-3-1.1-6.4-1.7-10.5-1.7s-6.3.5-9,1.6c-2.7,1.1-5.1,2.6-7,4.6s-3.5,4.4-4.6,7.2c-1.1,2.8-1.7,6-1.7,9.6s.5,7.2,1.6,10.1c1.1,2.9,2.5,5.3,4.4,7.2,1.9,1.9,4.2,3.3,6.8,4.3,2.6.9,5.5,1.4,8.6,1.4s3.6-.2,5.1-.6c1.5-.4,2.7-.8,3.6-1.2v-13.4h-13.6c-.5-.8-.9-1.8-1.3-3.1-.4-1.3-.6-2.6-.6-4,0-2.5.6-4.4,1.8-5.6s2.7-1.8,4.6-1.8h19.9c2.2,0,3.9.6,5.2,1.8,1.3,1.2,1.9,2.9,1.9,5.1v24.6Z"/>
      <path class="cls-1" d="M471.9,123.3c-1.9.6-4.1.9-6.7.9s-5.2-.4-7.6-1.3c-2.4-.9-4.3-2.8-5.9-5.9l-13.7-26.5c-1.3-2.5-2.6-5-3.7-7.6-1.1-2.5-2.3-5.2-3.4-7.9l-.8.2c.4,4.7.6,9.2.7,13.5,0,4.3.1,8.5.1,12.5v22c-.8.2-2,.3-3.5.5-1.5.2-3.1.3-4.8.3-3.5,0-6-.6-7.4-1.8s-2.1-3.4-2.1-6.6v-60.9c.9-1.3,2.5-2.4,4.6-3.1,2.1-.7,4.3-1.1,6.7-1.1s5.3.4,7.6,1.3c2.3.9,4.3,2.8,5.9,5.8l13.8,26.6c1.3,2.5,2.6,5,3.7,7.6,1.1,2.5,2.3,5.2,3.4,7.9h.5c-.4-5.4-.6-10.4-.6-15.1,0-4.7,0-9.3,0-13.6v-19.6c.8-.2,1.9-.4,3.5-.6,1.5-.2,3.2-.4,4.9-.4,3.5,0,6,.6,7.4,1.8,1.4,1.2,2.1,3.4,2.1,6.6v62.2c-1.1.9-2.6,1.7-4.5,2.3Z"/>
      <path class="cls-1" d="M509.9,124c-3.7,0-6.3-.6-7.7-1.9-1.5-1.3-2.2-3.5-2.2-6.9v-64c.9-.2,2.1-.4,3.7-.6,1.6-.2,3.2-.4,4.9-.4,3.5,0,6.1.6,7.6,1.8s2.3,3.5,2.3,7v64c-.9.2-2.1.5-3.7.6-1.6.2-3.2.3-5,.3Z"/>
      <path class="cls-1" d="M597.6,61.5c0,1.8-.5,3.4-1.4,4.8s-2.1,2.5-3.3,3.3c-2.1-1.3-4.3-2.5-6.7-3.5-2.4-1-5.3-1.5-8.6-1.5-6.3,0-11.2,2-14.8,6-3.5,4-5.3,9.6-5.3,17s1.9,13.3,5.6,17.1c3.7,3.8,8.9,5.7,15.4,5.7s6.3-.5,8.7-1.4c2.4-.9,4.6-2,6.7-3.3,1.2.9,2.1,2.1,2.9,3.6.7,1.5,1.1,3.1,1.1,4.9s-.4,3.1-1.2,4.4-2.3,2.5-4.3,3.5c-1.6.8-3.7,1.5-6.4,2.2-2.7.7-6,1-9.9,1s-10.2-.8-14.8-2.2c-4.6-1.5-8.6-3.8-11.9-6.9-3.4-3.1-6.1-7-8-11.8-1.9-4.8-2.9-10.4-2.9-17s1-11.6,2.9-16.3c1.9-4.7,4.6-8.7,7.9-11.9,3.3-3.2,7.2-5.6,11.6-7.3,4.4-1.7,9.1-2.5,14.2-2.5,7.2,0,12.7,1.1,16.7,3.4,3.9,2.3,5.9,5.2,5.9,8.6Z"/>
      <path class="cls-1" d="M627,124c-3.7,0-6.3-.6-7.7-1.9-1.5-1.3-2.2-3.5-2.2-6.9v-64c.9-.2,2.1-.4,3.7-.6,1.6-.2,3.2-.4,4.9-.4,3.5,0,6.1.6,7.6,1.8s2.3,3.5,2.3,7v64c-.9.2-2.1.5-3.7.6-1.6.2-3.2.3-5,.3Z"/>
      <path class="cls-1" d="M692.5,66.5v56.6c-.9.2-2.1.5-3.7.6-1.6.2-3.2.3-5,.3-3.7,0-6.3-.6-7.8-1.9-1.5-1.3-2.2-3.5-2.2-6.9v-48.8h-18.6c-.5-.8-.9-1.8-1.4-3.1-.4-1.3-.6-2.6-.6-4.1,0-2.7.6-4.6,1.8-5.9,1.2-1.2,2.8-1.8,4.8-1.8h51.7c.5.8,1,1.8,1.4,3.1.4,1.3.6,2.6.6,4.1,0,2.6-.6,4.5-1.8,5.8-1.2,1.3-2.8,1.9-4.8,1.9h-14.4Z"/>
    </g>
  </g>
</svg>