<?xml version="1.0" encoding="UTF-8"?>
<svg id="Layer_1" data-name="Layer 1" xmlns="http://www.w3.org/2000/svg" version="1.1" viewBox="0 0 360 360">
  <defs>
    <style>
      .cls-1 {
        font-family: MyriadPro-Regular, 'Myriad Pro';
        font-size: 8px;
      }

      .cls-1, .cls-2 {
        fill: #fff;
      }

      .cls-2 {
        stroke-width: 0px;
      }
    </style>
  </defs>
  <path class="cls-2" d="M254,111.7c-22.5-20.8-49.1-29.2-79.2-23.7-50.7,9.2-83.3,55.5-74.3,106.4,6.3,35.6,27.6,60,62,71.2,34.8,11.3,66,3.3,92.8-21.6,4.2-3.9,6.3-8.9,6.2-14.7,0-8.1-4.5-13.6-11.1-17.8,11-22,11.1-43.8,0-65.9.6-.5,1-.9,1.4-1.2,12.3-9.1,13.4-22.3,2.3-32.6ZM121.7,145.2c22-46.4,83.5-58.1,121.1-23.2,1.3,1.2,2.8,2.7,3.2,4.3.3,1.3-.5,3.8-1.5,4.2-1.5.7-3.9.6-5.4,0-2-1-3.5-3-5.3-4.5-35.8-29.1-89.3-15.1-106.1,27.9-2.6,6.7-2.8,6.8-10.8,3.8,1.6-4.1,2.9-8.4,4.8-12.4ZM150.7,196.6c.8,1.3,1.6,2.5,2.3,3.8,14,23.8,45.3,29,66.3,11.2.6-.5,1.2-1.1,1.9-1.7,2.3-2,5.3-2.7,6.8.1.9,1.5.3,5.1-1,6.4-6.9,7-15.5,11.3-25.1,13.5-22.9,5.1-47.4-6.4-57.9-27.3-.6-1.2-1-2.4-1.5-3.9,2.8-.7,5.4-1.3,8.2-2ZM141.1,182.1c-2.2-.9-2.7-3.1-2.7-4.7,0-11.9,3.9-22.5,11.3-31.8,1.2-1.6,2.6-3.1,4-4.5,1.4-1.4,2.9-2.7,4.4-4,9.3-7.4,20.9-11.5,32.9-11.5,10.7.3,20.3,3.1,28.9,8.8,2,1.3,3.9,2.8,5.7,4.5,2.5,2.2,5.6,4.7,2.3,8.2-3,3.2-5.6.7-8.1-1.5-17.1-14.7-41.2-14.7-57.9,0-9,8-13.8,18.1-14.7,30.1-.2,1.9-.6,4.1-1.7,5.5-.7.9-3.4,1.2-4.4.8ZM209.9,199.6c-8,6.8-17,8.9-27,6.1-11.2-3.1-19.3-13-20.5-24.6-1.1-11.3,4.8-22.4,14.9-27.9,10.2-5.5,23-4.4,31.8,3.3,5.8,5.1,11.9,8.7,19.8,6.8,3.5-.8,6.7-2.7,10.8-4.5,5.1,13,5.1,26,0,39.2-.3,0-.9-.1-1.4-.3,0,0,0,0,0,0-.1,0-.2,0-.3-.1-10.7-6.9-18.1-6.4-28,2ZM243.3,234.4c-7.4,5.1-14.4,11-22.6,14.4-9.4,3.9-21.6,6-30,6.4-40.8,0-75.6-33.4-76.4-73.3,0-.5,0-1,0-1.5,0-3,.3-6,4.1-6.2,4.1-.2,4.5,3,4.9,6.1.5,4.8.8,9.6,2,14.3,12.3,49.6,72.5,68.2,110.8,34.4.5-.4,1-.9,1.5-1.4,2.3-2.4,5.1-3.9,7.7-.9,2.7,3,.7,5.8-1.9,7.6Z"/>
  <text class="cls-1" transform="translate(249.2 101.5)"><tspan x="0" y="0">TM</tspan></text>
</svg>