<?xml version="1.0" encoding="UTF-8"?>
<svg id="Layer_1" xmlns="http://www.w3.org/2000/svg" xmlns:xlink="http://www.w3.org/1999/xlink" version="1.1" viewBox="0 0 291.2 290.8">
  <!-- Generator: Adobe Illustrator 29.6.1, SVG Export Plug-In . SVG Version: 2.1.1 Build 9)  -->
  <defs>
    <style>
      .st0 {
        fill: none;
      }

      .st1 {
        fill: #0194c1;
      }

      .st2 {
        fill: #dddcdb;
      }

      .st3 {
        clip-path: url(#clippath-1);
      }

      .st4 {
        clip-path: url(#clippath-3);
      }

      .st5 {
        clip-path: url(#clippath-4);
      }

      .st6 {
        clip-path: url(#clippath-2);
      }

      .st7 {
        clip-path: url(#clippath-6);
      }

      .st8 {
        clip-path: url(#clippath-5);
      }

      .st9 {
        fill: #61c7d5;
      }

      .st10 {
        clip-path: url(#clippath);
      }
    </style>
    <clipPath id="clippath">
      <rect class="st0" x="-77.3" y="-159.8" width="448.2" height="609.8" transform="translate(-15.3 17.3) rotate(-6.4)"/>
    </clipPath>
    <clipPath id="clippath-1">
      <rect class="st0" x="-45.8" y="-139.1" width="385.3" height="568.4"/>
    </clipPath>
    <clipPath id="clippath-2">
      <rect class="st0" x="-45.8" y="-139.1" width="385.3" height="568.4"/>
    </clipPath>
    <clipPath id="clippath-3">
      <rect class="st0" x="-77.3" y="-159.8" width="448.2" height="609.8" transform="translate(-15.3 17.3) rotate(-6.4)"/>
    </clipPath>
    <clipPath id="clippath-4">
      <rect class="st0" x="8" y="7.8" width="276.2" height="276.2" transform="translate(-15.3 17.2) rotate(-6.4)"/>
    </clipPath>
    <clipPath id="clippath-5">
      <rect class="st0" x="8" y="7.8" width="276.2" height="276.2" transform="translate(-15.3 17.2) rotate(-6.4)"/>
    </clipPath>
    <clipPath id="clippath-6">
      <rect class="st0" x="-45.8" y="-139.1" width="385.3" height="568.4"/>
    </clipPath>
  </defs>
  <g class="st10">
    <g class="st3">
      <g class="st6">
        <image width="386" height="569" transform="translate(-45.8 -139.1)" xlink:href="circle graph-1.png"/>
      </g>
    </g>
  </g>
  <g class="st4">
    <g class="st5">
      <g class="st8">
        <g class="st7">
          <path class="st1" d="M254,59.7c-17.6-22-42-38.9-71.3-46.9l-9.4,34c21.8,6,40,18.5,53,34.9,19.8,24.8,27.9,58.4,18.8,91.4-15,54.7-71.6,86.9-126.3,71.9l-9.4,34.1c73.5,20.2,149.5-23,169.7-96.6,12.2-44.3,1.3-89.4-25.3-122.8"/>
          <path class="st9" d="M182.7,12.8l-9.4,34c-54.7-15-111.3,17.1-126.3,71.9l-34-9.4C33.2,35.8,109.2-7.5,182.7,12.8"/>
          <path class="st9" d="M65.9,210l-27.6,22C11.7,198.7.8,153.6,13,109.3l34,9.4c-9.1,33-1,66.5,18.8,91.4"/>
          <path class="st2" d="M118.9,245l-9.4,34.1c-29.3-8-53.7-24.9-71.3-47l27.6-22c13.1,16.4,31.3,29,53,34.9"/>
        </g>
      </g>
    </g>
  </g>
</svg>