<?xml version="1.0" encoding="UTF-8"?>
<svg id="Layer_1" data-name="Layer 1" xmlns="http://www.w3.org/2000/svg" viewBox="0 0 272.16 243.52">
  <defs>
    <style>
      .cls-1, .cls-2 {
        stroke-width: 0px;
      }

      .cls-1, .cls-3 {
        fill: #010101;
      }

      .cls-2 {
        fill: #00aeef;
      }

      .cls-3 {
        font-family: MyriadPro-Regular, 'Myriad Pro';
        font-size: 8px;
      }
    </style>
  </defs>
  <path class="cls-2" d="M196.75,25.32C174.28,4.5,147.64-3.84,117.52,1.64,66.81,10.88,34.23,57.16,43.24,108.01c6.3,35.57,27.58,60.03,61.96,71.21,34.78,11.31,66.01,3.29,92.81-21.65,4.24-3.94,6.29-8.87,6.23-14.72-.08-8.14-4.53-13.6-11.13-17.83,10.99-21.97,11.09-43.75.02-65.92.63-.53.99-.86,1.38-1.15,12.33-9.06,13.43-22.28,2.25-32.64ZM64.43,58.83C86.47,12.47,147.92.69,185.57,35.58c1.3,1.21,2.76,2.7,3.16,4.3.32,1.28-.49,3.77-1.48,4.21-1.52.69-3.9.65-5.42-.1-2.02-.99-3.51-3.01-5.32-4.47-35.8-29.13-89.26-15.08-106.09,27.87-2.64,6.73-2.75,6.78-10.79,3.8,1.59-4.13,2.91-8.38,4.8-12.37ZM93.47,110.2c.78,1.26,1.58,2.49,2.32,3.75,14.04,23.75,45.27,29.02,66.34,11.18.63-.54,1.22-1.13,1.86-1.66,2.35-1.96,5.25-2.67,6.84.12.86,1.51.25,5.05-1.03,6.37-6.91,7.05-15.46,11.33-25.1,13.49-22.92,5.13-47.37-6.37-57.87-27.32-.58-1.15-.95-2.4-1.54-3.91,2.82-.7,5.36-1.33,8.18-2.03ZM83.87,95.75c-2.18-.89-2.7-3.07-2.7-4.7-.02-11.89,3.92-22.51,11.27-31.81,1.24-1.57,2.57-3.06,3.97-4.46,1.4-1.4,2.88-2.72,4.42-3.95,9.27-7.37,20.92-11.52,32.89-11.5,10.65.28,20.34,3.07,28.9,8.81,1.98,1.32,3.89,2.81,5.74,4.45,2.53,2.25,5.64,4.71,2.33,8.22-2.97,3.15-5.63.67-8.13-1.47-17.15-14.69-41.24-14.73-57.91,0-9.03,7.98-13.76,18.14-14.73,30.14-.15,1.9-.56,4.09-1.67,5.48-.74.93-3.35,1.21-4.38.79ZM152.66,113.25c-7.95,6.76-16.98,8.93-27.02,6.13-11.24-3.14-19.34-13-20.49-24.55-1.13-11.34,4.77-22.41,14.87-27.86,10.18-5.5,22.99-4.44,31.77,3.25,5.82,5.11,11.95,8.7,19.85,6.79,3.47-.84,6.69-2.75,10.78-4.5,5.08,13.01,5.06,25.97-.03,39.21-.26-.02-.94-.15-1.4-.32,0,0,0,0,0,0-.12-.04-.22-.09-.3-.14-10.69-6.91-18.13-6.4-28.01,1.99ZM186.03,148.03c-7.37,5.06-14.45,11.05-22.57,14.41-9.37,3.87-21.62,6-30.02,6.43-40.83-.08-75.56-33.37-76.45-73.28-.01-.5,0-1-.02-1.5-.1-3.04.25-6,4.1-6.16,4.13-.17,4.52,2.95,4.87,6.13.52,4.78.84,9.65,1.99,14.29,12.29,49.58,72.53,68.22,110.77,34.36.5-.44,1-.89,1.47-1.36,2.35-2.35,5.07-3.9,7.73-.93,2.7,3.02.73,5.82-1.85,7.6Z"/>
  <text class="cls-3" transform="translate(191.97 15.14)"><tspan x="0" y="0">TM</tspan></text>
  <text class="cls-3" transform="translate(255.62 215.18)"><tspan x="0" y="0">TM</tspan></text>
  <g>
    <path class="cls-1" d="M27,214.42c0,.83-.22,1.56-.65,2.19s-.94,1.13-1.51,1.49c-.94-.61-1.95-1.15-3.05-1.62-1.1-.47-2.4-.7-3.92-.7-2.88,0-5.13.91-6.75,2.73-1.62,1.82-2.43,4.4-2.43,7.75s.85,6.06,2.57,7.8c1.71,1.75,4.06,2.62,7.05,2.62,1.55,0,2.87-.21,3.97-.62,1.1-.41,2.11-.91,3.05-1.49.54.43.98.98,1.32,1.65.34.67.51,1.41.51,2.24,0,.72-.19,1.4-.57,2.03s-1.04,1.16-1.97,1.59c-.72.36-1.69.69-2.92,1-1.22.31-2.74.46-4.54.46-2.41,0-4.66-.34-6.75-1.03-2.09-.68-3.91-1.73-5.45-3.13-1.55-1.4-2.76-3.19-3.65-5.37-.88-2.18-1.32-4.76-1.32-7.75,0-2.81.44-5.29,1.32-7.45.88-2.16,2.08-3.97,3.59-5.43s3.28-2.56,5.29-3.32c2.02-.76,4.18-1.13,6.48-1.13,3.28,0,5.81.52,7.61,1.57,1.8,1.04,2.7,2.36,2.7,3.94Z"/>
    <path class="cls-1" d="M67.34,226.19c0,2.81-.42,5.29-1.27,7.45-.85,2.16-2.02,3.97-3.54,5.43-1.51,1.46-3.29,2.57-5.35,3.32-2.05.76-4.28,1.13-6.7,1.13s-4.64-.38-6.7-1.13c-2.05-.76-3.83-1.86-5.32-3.32-1.49-1.46-2.66-3.27-3.51-5.43-.85-2.16-1.27-4.64-1.27-7.45s.43-5.28,1.3-7.42c.86-2.14,2.05-3.94,3.56-5.4,1.51-1.46,3.28-2.56,5.32-3.32,2.03-.76,4.24-1.13,6.61-1.13s4.59.38,6.64,1.13c2.05.76,3.83,1.86,5.35,3.32,1.51,1.46,2.7,3.26,3.56,5.4.86,2.14,1.3,4.62,1.3,7.42ZM58.59,226.19c0-3.46-.73-6.06-2.19-7.8s-3.43-2.62-5.91-2.62-4.41.87-5.89,2.62c-1.48,1.75-2.21,4.35-2.21,7.8s.73,6.11,2.19,7.86,3.43,2.62,5.91,2.62,4.46-.87,5.91-2.62,2.19-4.37,2.19-7.86Z"/>
    <path class="cls-1" d="M105.35,237.64c0,1.04-.2,1.82-.59,2.32-.4.5-1.03,1.01-1.89,1.51-.5.29-1.12.56-1.84.81-.72.25-1.52.47-2.4.65-.88.18-1.8.32-2.75.43-.95.11-1.9.16-2.83.16-2.59,0-5-.33-7.21-1-2.21-.67-4.15-1.7-5.81-3.1-1.66-1.4-2.95-3.19-3.89-5.35-.94-2.16-1.4-4.75-1.4-7.78,0-2.84.48-5.35,1.43-7.53.95-2.18,2.25-4,3.89-5.45,1.64-1.46,3.56-2.56,5.78-3.29,2.21-.74,4.6-1.11,7.15-1.11,3.35,0,6.01.52,7.99,1.57,1.98,1.04,2.97,2.38,2.97,4,0,.83-.22,1.56-.65,2.19-.43.63-.94,1.13-1.51,1.49-.9-.58-2.03-1.12-3.38-1.62-1.35-.5-2.94-.76-4.78-.76-1.51,0-2.89.24-4.13.73-1.24.49-2.31,1.18-3.21,2.08s-1.6,2-2.11,3.29c-.5,1.3-.76,2.75-.76,4.37,0,1.76.24,3.3.73,4.62.49,1.31,1.16,2.4,2.03,3.27.86.86,1.9,1.51,3.1,1.94,1.21.43,2.51.65,3.92.65.86,0,1.65-.09,2.35-.27.7-.18,1.25-.36,1.65-.54v-6.1h-6.21c-.22-.36-.41-.83-.59-1.4-.18-.58-.27-1.19-.27-1.84,0-1.15.27-2,.81-2.54s1.24-.81,2.11-.81h9.07c1.01,0,1.8.28,2.38.84.58.56.86,1.34.86,2.35v11.23Z"/>
    <path class="cls-1" d="M142.13,242.63c-.87.27-1.89.4-3.08.4s-2.38-.2-3.46-.59c-1.08-.4-1.98-1.3-2.7-2.7l-6.26-12.1c-.61-1.15-1.18-2.3-1.7-3.46-.52-1.15-1.04-2.36-1.54-3.62l-.38.11c.18,2.16.29,4.22.32,6.18.04,1.96.05,3.86.05,5.7v10.04c-.36.07-.89.15-1.59.24-.7.09-1.43.13-2.19.13-1.62,0-2.75-.28-3.4-.84s-.97-1.56-.97-3v-27.81c.43-.61,1.12-1.09,2.08-1.43.95-.34,1.97-.51,3.05-.51,1.26,0,2.42.2,3.48.59,1.06.4,1.95,1.28,2.67,2.65l6.32,12.15c.61,1.15,1.18,2.3,1.7,3.46.52,1.15,1.03,2.36,1.54,3.62l.22-.05c-.18-2.41-.28-4.7-.3-6.86-.02-2.16-.03-4.23-.03-6.21v-8.96c.36-.07.89-.16,1.59-.27.7-.11,1.45-.16,2.24-.16,1.62,0,2.75.28,3.4.84.65.56.97,1.56.97,3v28.4c-.5.43-1.19.78-2.05,1.05Z"/>
    <path class="cls-1" d="M159.46,242.98c-1.69,0-2.87-.29-3.54-.86-.67-.58-1-1.62-1-3.13v-29.21c.4-.07.96-.16,1.7-.27.74-.11,1.48-.16,2.24-.16,1.62,0,2.78.27,3.48.81s1.05,1.6,1.05,3.19v29.21c-.4.11-.95.21-1.67.3-.72.09-1.48.13-2.27.13Z"/>
    <path class="cls-1" d="M199.53,214.42c0,.83-.22,1.56-.65,2.19s-.94,1.13-1.51,1.49c-.94-.61-1.95-1.15-3.05-1.62-1.1-.47-2.4-.7-3.91-.7-2.88,0-5.13.91-6.75,2.73-1.62,1.82-2.43,4.4-2.43,7.75s.85,6.06,2.57,7.8c1.71,1.75,4.06,2.62,7.05,2.62,1.55,0,2.87-.21,3.97-.62,1.1-.41,2.11-.91,3.05-1.49.54.43.98.98,1.32,1.65.34.67.51,1.41.51,2.24,0,.72-.19,1.4-.57,2.03s-1.04,1.16-1.97,1.59c-.72.36-1.69.69-2.92,1-1.22.31-2.74.46-4.54.46-2.41,0-4.66-.34-6.75-1.03-2.09-.68-3.91-1.73-5.45-3.13-1.55-1.4-2.76-3.19-3.65-5.37-.88-2.18-1.32-4.76-1.32-7.75,0-2.81.44-5.29,1.32-7.45.88-2.16,2.08-3.97,3.59-5.43,1.51-1.46,3.28-2.56,5.29-3.32,2.02-.76,4.18-1.13,6.48-1.13,3.28,0,5.81.52,7.61,1.57,1.8,1.04,2.7,2.36,2.7,3.94Z"/>
    <path class="cls-1" d="M212.97,242.98c-1.69,0-2.87-.29-3.54-.86-.67-.58-1-1.62-1-3.13v-29.21c.4-.07.96-.16,1.7-.27.74-.11,1.48-.16,2.24-.16,1.62,0,2.78.27,3.48.81s1.05,1.6,1.05,3.19v29.21c-.4.11-.95.21-1.67.3-.72.09-1.48.13-2.27.13Z"/>
    <path class="cls-1" d="M242.89,216.69v25.87c-.4.11-.95.21-1.67.3-.72.09-1.48.13-2.27.13-1.69,0-2.88-.29-3.56-.86-.68-.58-1.03-1.62-1.03-3.13v-22.3h-8.48c-.22-.36-.42-.83-.62-1.4-.2-.58-.3-1.21-.3-1.89,0-1.22.27-2.11.81-2.67.54-.56,1.28-.84,2.21-.84h23.6c.25.36.47.83.65,1.4.18.58.27,1.21.27,1.89,0,1.19-.27,2.07-.81,2.65-.54.58-1.28.86-2.21.86h-6.59Z"/>
  </g>
</svg>