<?xml version="1.0" encoding="UTF-8"?>
<svg id="Layer_1" xmlns="http://www.w3.org/2000/svg" version="1.1" viewBox="0 0 399.9 736.2">
  <!-- Generator: Adobe Illustrator 29.6.1, SVG Export Plug-In . SVG Version: 2.1.1 Build 9)  -->
  <defs>
    <style>
      .st0 {
        fill: #2081c4;
      }

      .st1 {
        fill: #3daee3;
      }

      .st2 {
        fill: #fff;
      }

      .st3 {
        fill: #dee8f4;
      }

      .st4 {
        fill: #026bb1;
      }

      .st5 {
        fill: #3290cf;
      }
    </style>
  </defs>
  <polygon class="st2" points="237.6 151.7 57 179.9 85.2 144.6 107.4 141.4 120.9 119.9 140.4 118.3 171.5 78.7 183.2 74.1 217.1 32.5 189.2 135 237.6 151.7"/>
  <polygon class="st3" points="237.6 151.7 189.2 135 217.1 32.5 253.6 71.9 256.4 88.2 277.1 100.1 277.1 125.1 299.3 134.6 301.7 156.1 321.4 179.9 57 179.9 237.6 151.7"/>
  <g>
    <polygon class="st1" points="321.4 179.9 360.1 245.8 303.3 332.9 298 471.1 277.3 551.6 284.2 624.6 222.6 700.1 137 609.5 91.9 515.2 39.6 446.1 93.4 275.5 57 179.9 321.4 179.9"/>
    <polygon class="st5" points="303.3 332.9 298 471.1 277.3 551.6 284.2 624.6 222.6 700.1 137 609.5 91.9 515.2 39.6 446.1 142.5 341.7 237.6 325.9 360.1 245.8 303.3 332.9"/>
    <polygon class="st0" points="298 471.1 277.3 551.6 284.2 624.6 222.6 700.1 137 609.5 91.9 515.2 171.7 475.7 237.6 478.6 301.4 381.5 298 471.1"/>
    <polygon class="st4" points="284.2 624.6 222.6 700.1 137 609.5 213.8 610.9 277.3 551.6 284.2 624.6"/>
  </g>
</svg>