<?xml version="1.0" encoding="UTF-8"?>
<svg xmlns="http://www.w3.org/2000/svg" version="1.1" viewBox="0 0 1200 1000">
  <defs>
    <style>
      .st0 {
        fill: #e0e0e0;
      }

      .st1 {
        fill: #dfdfdf;
      }

      .st2 {
        fill: #d6d6d6;
      }

      .st3 {
        fill: #bdbdbd;
      }

      .st4 {
        fill: #043254;
      }

      .st10 {
        fill: #f6f6f6;
      }

      .st11 {
        fill: #ebebeb;
      }

      .st38 {
        fill: #17415f;
      }

      .st43 {
        fill: #04263d;
      }

      .st48 {
        fill: #133f5a;
      }

      .st50 {
        fill: #fff;
        font-family: MyriadPro-Bold, 'Myriad Pro';
        font-size: 96px;
        font-weight: 700;
      }

      .st100 {
        fill: #4788ba;
        font-family: MyriadPro-Bold, 'Myriad Pro';
        font-size: 48px;
        font-weight: 700;
      }

      .st101 {
        fill: #4788ba;
        font-family: MyriadPro-Regular, 'Myriad Pro';
        font-size: 36px;
        font-weight: 400;
      }

      .st51 {
        fill: #f3f3f3;
      }
    </style>
  </defs>
  
  <g id="Q1_notepad">
    <!-- Main notepad background -->
    <path class="st48" d="M100,900c-82.75,0-165.5,0-248.25,0-1.85,0-2.3-.4-2.3-2.3.05-151.35.05-302.65,0-454,0-1.85.4-2.3,2.3-2.3,165.5.05,331,.05,496.5,0,1.85,0,2.3.4,2.3,2.3-.05,151.35-.05,302.65,0,454,0,1.85-.4,2.3-2.3,2.3-82.75-.05-165.5,0-248.25,0Z"/>
    
    <!-- Notepad paper -->
    <path class="st51" d="M99.95,873c-59.4,0-118.85.15-178.25-.1-11.75-.05-23.4-1.8-34.25-7.3-9.15-4.65-15.15-11.9-18.95-21.2-2.55-6.2-3.5-12.7-4.1-19.35-.9-9.75.7-19.35,1.05-29,0-.75,0-1.5,0-2.25,0-63.35.05-126.65-.1-190,0-8.35-.8-16.7-1.85-25-.4-3.2-.55-6.45-.55-9.7,0-22.4-.35-44.85.1-67.25.25-11.85,1.85-23.55,7.35-34.5,4.95-9.8,12.7-16.25,22.65-20.3,8.3-3.4,17.05-4.45,25.95-5.1,12.15-.85,24.3-.4,36.45-.4,106.65-.05,213.35-.1,320,.05,12.25,0,24.4,1.7,35.7,7.45,9.75,4.95,16.1,12.6,20.15,22.45,2.65,6.4,3.75,13.15,4.65,20,1.35,10.55.85,21.1.9,31.65.1,13.15,0,26.35,0,39.5,0,9.8-.95,19.5-1.9,29.25-.35,3.7-.5,7.45-.55,11.2-.1,63.4-.1,126.85,0,190.25,0,9.35,1.45,18.7,1.3,28.05-.15,10.75-2.4,21.15-8.3,30.6-5.9,9.5-14.85,14.45-25.1,17.5-6.35,1.9-12.95,2.6-19.55,3.15-4.6.4-9.15.35-13.7.35-56.4,0-112.85,0-169.25,0Z"/>

    <!-- Blue header tab -->
    <path class="st4" d="M350,200c0-16.6-13.4-30-30-30H150c-16.6,0-30,13.4-30,30v50c0,16.6,13.4,30,30,30h170c16.6,0,30-13.4,30-30v-50z"/>

    <!-- Magnifying glass icon -->
    <g transform="translate(220,300)">
      <circle cx="0" cy="0" r="25" fill="none" stroke="#333" stroke-width="3"/>
      <line x1="20" y1="20" x2="35" y2="35" stroke="#333" stroke-width="3"/>
    </g>

    <!-- Spiral binding holes -->
    <circle cx="80" cy="350" r="8" fill="#ccc"/>
    <circle cx="80" cy="400" r="8" fill="#ccc"/>
    <circle cx="80" cy="450" r="8" fill="#ccc"/>
    <circle cx="80" cy="500" r="8" fill="#ccc"/>
    <circle cx="80" cy="550" r="8" fill="#ccc"/>
    <circle cx="80" cy="600" r="8" fill="#ccc"/>
    <circle cx="80" cy="650" r="8" fill="#ccc"/>
    <circle cx="80" cy="700" r="8" fill="#ccc"/>

    <!-- Ruled lines -->
    <line x1="120" y1="380" x2="480" y2="380" stroke="#e0e0e0" stroke-width="1"/>
    <line x1="120" y1="420" x2="480" y2="420" stroke="#e0e0e0" stroke-width="1"/>
    <line x1="120" y1="460" x2="480" y2="460" stroke="#e0e0e0" stroke-width="1"/>
    <line x1="120" y1="500" x2="480" y2="500" stroke="#e0e0e0" stroke-width="1"/>
    <line x1="120" y1="540" x2="480" y2="540" stroke="#e0e0e0" stroke-width="1"/>
    <line x1="120" y1="580" x2="480" y2="580" stroke="#e0e0e0" stroke-width="1"/>
    <line x1="120" y1="620" x2="480" y2="620" stroke="#e0e0e0" stroke-width="1"/>
    <line x1="120" y1="660" x2="480" y2="660" stroke="#e0e0e0" stroke-width="1"/>
    <line x1="120" y1="700" x2="480" y2="700" stroke="#e0e0e0" stroke-width="1"/>

    <!-- Q1 label and content -->
    <text class="st50" transform="translate(235 200)"><tspan x="0" y="0">Q1</tspan></text>
    <text class="st100" transform="translate(300 580)" text-anchor="middle"><tspan x="0" y="0">Assess Staff</tspan></text>
    <text class="st101" transform="translate(300 640)" text-anchor="middle"><tspan x="0" y="0">Full assessment = 1 hr</tspan></text>
  </g>
</svg>
